<?xml version="1.0" encoding="UTF-8"?>
<svg version="1.1" xmlns="http://www.w3.org/2000/svg" width="2000" height="518">
<path d="M0 0 C24.42 0 48.84 0 74 0 C74 14.19 74 28.38 74 43 C80.93 43 87.86 43 95 43 C95 57.19 95 71.38 95 86 C98.96 86 102.92 86 107 86 C107 57.62 107 29.24 107 0 C131.09 0 155.18 0 180 0 C180 73.59 180 147.18 180 223 C155.91 223 131.82 223 107 223 C107 208.81 107 194.62 107 180 C100.07 180 93.14 180 86 180 C86 166.14 86 152.28 86 138 C82.04 138 78.08 138 74 138 C74 166.05 74 194.1 74 223 C49.58 223 25.16 223 0 223 C0 149.41 0 75.82 0 0 Z " fill="#FAC250" transform="translate(1090,152)"/>
<path d="M0 0 C45.54 0 91.08 0 138 0 C138 7.26 138 14.52 138 22 C144.93 22 151.86 22 159 22 C159 81.07 159 140.14 159 201 C152.07 201 145.14 201 138 201 C138 208.26 138 215.52 138 223 C92.46 223 46.92 223 0 223 C0 149.41 0 75.82 0 0 Z M74 53 C74 91.94 74 130.88 74 171 C77.96 171 81.92 171 86 171 C86 132.06 86 93.12 86 53 C82.04 53 78.08 53 74 53 Z " fill="#F54F1B" transform="translate(1333,152)"/>
<path d="M0 0 C45.54 0 91.08 0 138 0 C138 7.26 138 14.52 138 22 C144.93 22 151.86 22 159 22 C159 81.07 159 140.14 159 201 C152.07 201 145.14 201 138 201 C138 208.26 138 215.52 138 223 C92.46 223 46.92 223 0 223 C0 149.41 0 75.82 0 0 Z M74 53 C74 91.94 74 130.88 74 171 C77.96 171 81.92 171 86 171 C86 132.06 86 93.12 86 53 C82.04 53 78.08 53 74 53 Z " fill="#FAC250" transform="translate(372,152)"/>
<path d="M0 0 C19.49240871 15.17919487 40.87242537 34.41219036 52.5 56.4375 C52.8403125 57.04464844 53.180625 57.65179688 53.53125 58.27734375 C57.0968776 65.82128732 56.67849459 75.80536152 54.65625 83.75390625 C50.95743697 93.33833056 44.82369683 101.32995395 37.5 108.4375 C38.33547363 108.45208252 39.17094727 108.46666504 40.03173828 108.48168945 C43.20428167 108.54363438 46.37625662 108.61793391 49.54833984 108.69995117 C51.56718233 108.74860656 53.58633777 108.78368343 55.60546875 108.81835938 C70.54795304 109.22320501 84.94339248 111.2632618 96.5 121.4375 C106.43680681 133.9497649 107.64197418 147.87522198 107.703125 163.28515625 C107.70882507 164.41465195 107.71452515 165.54414764 107.72039795 166.70787048 C107.72981183 169.09226557 107.7363675 171.47667345 107.74023438 173.86108398 C107.74990411 177.46426799 107.78094836 181.06687228 107.8125 184.66992188 C107.89428623 202.31839697 107.45327629 217.6212038 97.3125 232.6875 C85.61018101 244.12976746 70.83466613 245.58175044 55.27734375 245.640625 C53.51083214 245.64917511 53.51083214 245.64917511 51.70863342 245.65789795 C49.21990856 245.66732209 46.73117135 245.67387162 44.24243164 245.67773438 C40.47454459 245.68740492 36.70721157 245.71843969 32.93945312 245.75 C-2.88407798 245.90865199 -2.88407798 245.90865199 -15.875 233.5625 C-19.10964821 230.11831993 -21.39137548 226.65474904 -23.5 222.4375 C-23.768125 223.00597656 -24.03625 223.57445312 -24.3125 224.16015625 C-28.94076824 233.27967162 -35.01845519 238.10932702 -44.203125 242.39453125 C-53.34755761 245.28737901 -62.68565764 245.74619356 -72.2109375 245.73828125 C-73.96683701 245.74470894 -73.96683701 245.74470894 -75.75820923 245.75126648 C-78.21705483 245.75697063 -80.67591729 245.75753922 -83.13476562 245.75317383 C-86.85837092 245.75001411 -90.58118003 245.77352321 -94.3046875 245.79882812 C-129.38666997 245.89314519 -129.38666997 245.89314519 -142.25 234.375 C-155.9004189 219.56284332 -154.68162123 198.53496551 -154.63037109 179.76953125 C-154.62500585 177.44003801 -154.6303567 175.11073749 -154.63671875 172.78125 C-154.65661211 134.68371034 -154.65661211 134.68371034 -142.4609375 121.1796875 C-130.27069011 109.50634106 -114.30260394 109.19969849 -98.25 108.8125 C-96.9075304 108.77419011 -95.56508194 108.73513159 -94.22265625 108.6953125 C-90.98190024 108.60205333 -87.74113534 108.51625536 -84.5 108.4375 C-85.03979492 107.83711914 -85.57958984 107.23673828 -86.13574219 106.61816406 C-86.84891602 105.82120117 -87.56208984 105.02423828 -88.296875 104.203125 C-89.00166992 103.41711914 -89.70646484 102.63111328 -90.43261719 101.82128906 C-98.14899443 92.92394525 -103.50124059 82.10204521 -102.875 70.02734375 C-99.812818 48.87914933 -82.96703061 34.6963788 -68.60791016 20.25024414 C-67.2850519 18.91582186 -65.96668391 17.57693333 -64.65283203 16.23364258 C-46.70974543 -2.10922153 -24.72177175 -17.29813627 0 0 Z M-37.75 34 C-38.3996875 34.61697754 -39.049375 35.23395508 -39.71875 35.86962891 C-41.65526474 37.71608428 -43.58006404 39.57382404 -45.5 41.4375 C-46.04333984 41.96424316 -46.58667969 42.49098633 -47.14648438 43.03369141 C-52.86910352 48.60793278 -58.39218005 54.29348746 -63.5 60.4375 C-64.15355469 61.1903125 -64.80710937 61.943125 -65.48046875 62.71875 C-68.1239481 65.88459354 -70.21272736 68.45256525 -71.375 72.4375 C-69.32385034 79.47001311 -63.37938741 84.73251284 -58.23046875 89.7109375 C-56.49074265 91.44673645 -54.90358168 93.25268596 -53.3125 95.125 C-40.36613633 110.23374897 -40.36613633 110.23374897 -24 120.9375 C-14.26461666 119.54673095 -5.42615066 107.70463881 1.35058594 100.90258789 C3.12052122 99.12948679 4.90341189 97.37017433 6.6875 95.61132812 C16.83566755 85.95483374 16.83566755 85.95483374 24.5 74.4375 C24.4786744 69.19880169 22.16208124 66.18530962 18.79296875 62.4375 C18.30644333 61.880625 17.81991791 61.32375 17.31864929 60.75 C11.95771986 54.68815971 6.30541541 48.9056798 0.57397461 43.19580078 C-1.20548828 41.41954413 -2.97104884 39.63018489 -4.73632812 37.83984375 C-10.27999129 32.26607355 -15.46268478 27.11358243 -22.5 23.4375 C-27.9819196 23.4375 -34.11067936 30.49352221 -37.75 34 Z M-120.21020508 144.26489258 C-122.43557557 148.01343924 -122.6294841 151.43007913 -122.66113281 155.73754883 C-122.67074036 156.79577347 -122.6803479 157.85399811 -122.69024658 158.94429016 C-122.69449646 160.08286972 -122.69874634 161.22144928 -122.703125 162.39453125 C-122.70882507 163.57085617 -122.71452515 164.74718109 -122.72039795 165.95915222 C-122.72984246 168.44810081 -122.73637975 170.93706187 -122.74023438 173.42602539 C-122.74993614 177.22499512 -122.78096411 181.02342293 -122.8125 184.82226562 C-122.81903071 187.24218429 -122.82428091 189.66210682 -122.828125 192.08203125 C-122.8404718 193.21453812 -122.8528186 194.34704498 -122.86553955 195.51387024 C-122.84844451 201.59565869 -122.51497357 206.09829128 -119.5 211.4375 C-114.17809165 215.61899942 -105.27977997 214.59717581 -98.796875 214.60546875 C-97.87843811 214.60879715 -96.96000122 214.61212555 -96.01373291 214.61555481 C-94.07735695 214.62059735 -92.14097237 214.62296397 -90.20458984 214.62280273 C-87.27296287 214.62498292 -84.3417165 214.64315002 -81.41015625 214.66210938 C-67.76591191 215.04818718 -67.76591191 215.04818718 -54.5 212.4375 C-49.25064841 206.87936302 -50.34010287 197.85408016 -50.33203125 190.66796875 C-50.32870285 189.63239334 -50.32537445 188.59681793 -50.32194519 187.52986145 C-50.31689433 185.34372398 -50.31453629 183.15757884 -50.31469727 180.97143555 C-50.31251434 177.64684175 -50.29434857 174.3225819 -50.27539062 170.99804688 C-50.27245552 168.86718863 -50.27047151 166.73632881 -50.26953125 164.60546875 C-50.25875298 163.12846748 -50.25875298 163.12846748 -50.24775696 161.62162781 C-50.26686174 155.77865913 -50.50365429 149.98987685 -52.5 144.4375 C-58.0395443 139.22381124 -67.87863379 140.2790414 -75.08203125 140.26953125 C-75.97685715 140.26620285 -76.87168304 140.26287445 -77.79362488 140.25944519 C-79.67694591 140.25440965 -81.56027576 140.25203581 -83.44360352 140.25219727 C-86.29393528 140.25001422 -89.14387728 140.2318317 -91.99414062 140.21289062 C-107.16366589 139.08967757 -107.16366589 139.08967757 -120.21020508 144.26489258 Z M6.5 143.4375 C1.66328755 153.1109249 3.29711807 166.60302034 3.3125 177.1875 C3.31277191 177.89039154 3.31304382 178.59328308 3.31332397 179.31747437 C2.2078529 195.98610688 2.2078529 195.98610688 6.76062012 211.03106689 C12.2700118 215.48586767 21.78153658 214.73498869 28.53125 214.703125 C29.90609558 214.70599518 29.90609558 214.70599518 31.30871582 214.70892334 C33.23136675 214.71027403 35.15402716 214.70665634 37.07666016 214.69824219 C39.99272459 214.68752673 42.90817311 214.69817581 45.82421875 214.7109375 C47.7057305 214.70961571 49.58724188 214.70705291 51.46875 214.703125 C52.32633911 214.70717346 53.18392822 214.71122192 54.06750488 214.71539307 C64.25307006 214.85247568 64.25307006 214.85247568 73.2399292 210.9881134 C78.95223828 203.9586806 76.80065545 189.34108618 76.76074219 180.74975586 C76.75003663 178.00937706 76.76067681 175.2696556 76.7734375 172.52929688 C77.70990865 157.43383381 77.70990865 157.43383381 73.24064636 143.87362671 C67.81436446 139.39665279 58.34699301 140.14968563 51.65234375 140.20703125 C50.7556044 140.20748947 49.85886505 140.20794769 48.93495178 140.2084198 C47.05517234 140.21141691 45.17539481 140.21922583 43.2956543 140.23168945 C40.44115257 140.2499766 37.58697622 140.25219838 34.73242188 140.25195312 C32.8932264 140.25686891 31.0540331 140.2626975 29.21484375 140.26953125 C27.95352882 140.27120049 27.95352882 140.27120049 26.66673279 140.27290344 C16.17625859 140.07459274 16.17625859 140.07459274 6.5 143.4375 Z " fill="#F7F7FB" transform="translate(222.5,142.5625)"/>
<path d="M0 0 C52.47 0 104.94 0 159 0 C159 17.49 159 34.98 159 53 C130.95 53 102.9 53 74 53 C74 91.94 74 130.88 74 171 C77.96 171 81.92 171 86 171 C86 142.95 86 114.9 86 86 C110.09 86 134.18 86 159 86 C159 131.21 159 176.42 159 223 C106.53 223 54.06 223 0 223 C0 149.41 0 75.82 0 0 Z " fill="#FAC250" transform="translate(731,152)"/>
<path d="M0 0 C52.47 0 104.94 0 159 0 C159 17.49 159 34.98 159 53 C130.95 53 102.9 53 74 53 C74 63.89 74 74.78 74 86 C95.12 86 116.24 86 138 86 C138 103.16 138 120.32 138 138 C116.88 138 95.76 138 74 138 C74 148.89 74 159.78 74 171 C102.05 171 130.1 171 159 171 C159 188.16 159 205.32 159 223 C106.53 223 54.06 223 0 223 C0 149.41 0 75.82 0 0 Z " fill="#F54F1B" transform="translate(1765,152)"/>
<path d="M0 0 C52.47 0 104.94 0 159 0 C159 17.49 159 34.98 159 53 C130.95 53 102.9 53 74 53 C74 63.89 74 74.78 74 86 C95.12 86 116.24 86 138 86 C138 103.16 138 120.32 138 138 C116.88 138 95.76 138 74 138 C74 148.89 74 159.78 74 171 C102.05 171 130.1 171 159 171 C159 188.16 159 205.32 159 223 C106.53 223 54.06 223 0 223 C0 149.41 0 75.82 0 0 Z " fill="#FAC250" transform="translate(911,152)"/>
<path d="M0 0 C52.47 0 104.94 0 159 0 C159 17.49 159 34.98 159 53 C130.95 53 102.9 53 74 53 C74 63.89 74 74.78 74 86 C95.12 86 116.24 86 138 86 C138 103.16 138 120.32 138 138 C116.88 138 95.76 138 74 138 C74 148.89 74 159.78 74 171 C102.05 171 130.1 171 159 171 C159 188.16 159 205.32 159 223 C106.53 223 54.06 223 0 223 C0 149.41 0 75.82 0 0 Z " fill="#FAC250" transform="translate(551,152)"/>
<path d="M0 0 C45.54 0 91.08 0 138 0 C138 17.49 138 34.98 138 53 C116.88 53 95.76 53 74 53 C74 91.94 74 130.88 74 171 C95.12 171 116.24 171 138 171 C138 188.16 138 205.32 138 223 C92.46 223 46.92 223 0 223 C0 149.41 0 75.82 0 0 Z " fill="#F54F1B" transform="translate(1607,152)"/>
<path d="M0 0 C19.49240871 15.17919487 40.87242537 34.41219036 52.5 56.4375 C52.8403125 57.04464844 53.180625 57.65179688 53.53125 58.27734375 C57.0968776 65.82128732 56.67849459 75.80536152 54.65625 83.75390625 C50.95743697 93.33833056 44.82369683 101.32995395 37.5 108.4375 C38.33547363 108.45208252 39.17094727 108.46666504 40.03173828 108.48168945 C43.20428167 108.54363438 46.37625662 108.61793391 49.54833984 108.69995117 C51.56718233 108.74860656 53.58633777 108.78368343 55.60546875 108.81835938 C70.54795304 109.22320501 84.94339248 111.2632618 96.5 121.4375 C106.43680681 133.9497649 107.64197418 147.87522198 107.703125 163.28515625 C107.70882507 164.41465195 107.71452515 165.54414764 107.72039795 166.70787048 C107.72981183 169.09226557 107.7363675 171.47667345 107.74023438 173.86108398 C107.74990411 177.46426799 107.78094836 181.06687228 107.8125 184.66992188 C107.89428623 202.31839697 107.45327629 217.6212038 97.3125 232.6875 C85.61018101 244.12976746 70.83466613 245.58175044 55.27734375 245.640625 C53.51083214 245.64917511 53.51083214 245.64917511 51.70863342 245.65789795 C49.21990856 245.66732209 46.73117135 245.67387162 44.24243164 245.67773438 C40.47454459 245.68740492 36.70721157 245.71843969 32.93945312 245.75 C-2.88407798 245.90865199 -2.88407798 245.90865199 -15.875 233.5625 C-19.10964821 230.11831993 -21.39137548 226.65474904 -23.5 222.4375 C-23.768125 223.00597656 -24.03625 223.57445312 -24.3125 224.16015625 C-28.94076824 233.27967162 -35.01845519 238.10932702 -44.203125 242.39453125 C-53.34755761 245.28737901 -62.68565764 245.74619356 -72.2109375 245.73828125 C-73.96683701 245.74470894 -73.96683701 245.74470894 -75.75820923 245.75126648 C-78.21705483 245.75697063 -80.67591729 245.75753922 -83.13476562 245.75317383 C-86.85837092 245.75001411 -90.58118003 245.77352321 -94.3046875 245.79882812 C-129.38666997 245.89314519 -129.38666997 245.89314519 -142.25 234.375 C-155.9004189 219.56284332 -154.68162123 198.53496551 -154.63037109 179.76953125 C-154.62500585 177.44003801 -154.6303567 175.11073749 -154.63671875 172.78125 C-154.65661211 134.68371034 -154.65661211 134.68371034 -142.4609375 121.1796875 C-130.27069011 109.50634106 -114.30260394 109.19969849 -98.25 108.8125 C-96.9075304 108.77419011 -95.56508194 108.73513159 -94.22265625 108.6953125 C-90.98190024 108.60205333 -87.74113534 108.51625536 -84.5 108.4375 C-85.03979492 107.83711914 -85.57958984 107.23673828 -86.13574219 106.61816406 C-86.84891602 105.82120117 -87.56208984 105.02423828 -88.296875 104.203125 C-89.00166992 103.41711914 -89.70646484 102.63111328 -90.43261719 101.82128906 C-98.14899443 92.92394525 -103.50124059 82.10204521 -102.875 70.02734375 C-99.812818 48.87914933 -82.96703061 34.6963788 -68.60791016 20.25024414 C-67.2850519 18.91582186 -65.96668391 17.57693333 -64.65283203 16.23364258 C-46.70974543 -2.10922153 -24.72177175 -17.29813627 0 0 Z M-48.4765625 13.82421875 C-49.32138435 14.61124428 -49.32138435 14.61124428 -50.18327332 15.41416931 C-55.93252912 20.79624257 -61.57129997 26.28830908 -67.1496582 31.84692383 C-68.82257938 33.51002019 -70.50592375 35.16210473 -72.18945312 36.81445312 C-87.26322491 51.49360264 -87.26322491 51.49360264 -94.0625 70.75 C-93.30650893 84.74802821 -83.12882903 95.05683351 -73.66796875 104.2734375 C-71.03263213 106.90402576 -68.60727218 109.67436015 -66.203125 112.515625 C-64.06749326 114.92555807 -61.78296614 117.16757406 -59.5 119.4375 C-60.14542755 119.43083817 -60.7908551 119.42417633 -61.45584106 119.41731262 C-68.23792485 119.35039519 -75.01991325 119.30546786 -81.80224609 119.27270508 C-84.32572242 119.257717 -86.84917313 119.23731964 -89.37255859 119.21118164 C-114.5843552 117.92416528 -114.5843552 117.92416528 -136.5 128.4375 C-147.47282496 141.02188456 -145.67774831 159.08356297 -145.63037109 174.82373047 C-145.62500395 176.93594534 -145.6303611 179.04794768 -145.63671875 181.16015625 C-146.1927931 204.62058991 -146.1927931 204.62058991 -136.14453125 224.9921875 C-128.73423535 232.34759232 -117.83034558 233.88060128 -107.79685974 233.96763611 C-106.67666946 233.95640213 -105.55647919 233.94516815 -104.40234375 233.93359375 C-102.60815758 233.9357766 -102.60815758 233.9357766 -100.77772522 233.93800354 C-98.26935367 233.93635616 -95.76097078 233.92492679 -93.25268555 233.90405273 C-89.4434051 233.87504497 -85.63551606 233.88348153 -81.82617188 233.89648438 C-79.37238917 233.89024677 -76.91861079 233.88185566 -74.46484375 233.87109375 C-73.34262924 233.87402939 -72.22041473 233.87696503 -71.06419373 233.87998962 C-59.89140809 233.74856227 -49.06927754 232.12697492 -40.5 224.4375 C-29.81066059 212.94445086 -32.03344612 193.2820699 -32.10888672 178.859375 C-32.1250245 175.18191782 -32.10894598 171.50554963 -32.08984375 167.828125 C-32.09182535 165.46353927 -32.09566729 163.09895421 -32.1015625 160.734375 C-32.09548981 159.64872253 -32.08941711 158.56307007 -32.0831604 157.44451904 C-32.145384 150.63305632 -33.15753289 144.83924166 -35.5 138.4375 C-34.88125 138.7675 -34.2625 139.0975 -33.625 139.4375 C-28.25000108 141.15749966 -22.74999892 141.15749966 -17.375 139.4375 C-16.75625 139.1075 -16.1375 138.7775 -15.5 138.4375 C-15.809375 139.118125 -16.11875 139.79875 -16.4375 140.5 C-18.95456824 147.45895336 -18.67382722 154.7280167 -18.703125 162.0390625 C-18.70882507 163.15252045 -18.71452515 164.26597839 -18.72039795 165.41317749 C-18.72981843 167.76486266 -18.73637015 170.11656086 -18.74023438 172.46826172 C-18.74991132 176.02986254 -18.78095208 179.59087879 -18.8125 183.15234375 C-19.34337097 204.99857822 -19.34337097 204.99857822 -10.5 224.4375 C-1.2748908 232.90004977 10.41941597 233.90030531 22.40234375 233.8359375 C24.20077477 233.84024277 24.20077477 233.84024277 26.03553772 233.84463501 C28.55584184 233.84666468 31.0761621 233.84121223 33.59643555 233.82861328 C37.42337795 233.81255924 41.24926206 233.82849345 45.07617188 233.84765625 C47.5390648 233.84567335 50.00195707 233.84182871 52.46484375 233.8359375 C53.59333237 233.84201019 54.72182098 233.84808289 55.88450623 233.8543396 C67.00691316 233.75737834 78.00495078 232.1930651 86.5 224.4375 C88.2386815 222.14897905 89.27612859 220.08106226 90.5 217.4375 C90.83942627 216.83736084 91.17885254 216.23722168 91.52856445 215.61889648 C96.4006161 204.6785141 94.84048833 189.66914809 94.81567383 177.99438477 C94.81250179 174.87676365 94.83610202 171.76008359 94.86132812 168.64257812 C95.20137019 146.69280989 95.20137019 146.69280989 85.08984375 127.953125 C75.40762533 119.1745803 61.953277 119.12890099 49.61328125 119.2421875 C48.43025925 119.2450174 47.24723724 119.24784729 46.02836609 119.25076294 C42.28963645 119.261862 38.55115592 119.28694725 34.8125 119.3125 C32.26107119 119.32254308 29.70963859 119.3316666 27.15820312 119.33984375 C20.93871863 119.36176759 14.71937712 119.39514133 8.5 119.4375 C8.97832275 118.96441406 9.45664551 118.49132812 9.94946289 118.00390625 C12.1565534 115.81785594 14.35953633 113.62770871 16.5625 111.4375 C17.69075195 110.32181641 17.69075195 110.32181641 18.84179688 109.18359375 C35.68933436 92.93260592 35.68933436 92.93260592 42.9375 71.5 C42.30314303 54.85447302 26.38759488 41.84553525 15.43725586 30.98364258 C13.06072094 28.62323301 10.70070422 26.2471524 8.34179688 23.86914062 C6.81346126 22.34278688 5.28419558 20.81736373 3.75390625 19.29296875 C3.05987198 18.59286179 2.36583771 17.89275482 1.65077209 17.1714325 C-6.0536549 9.57506553 -14.00494202 3.21288184 -25.1875 3 C-35.46622103 3.22437957 -41.11457905 6.91594687 -48.4765625 13.82421875 Z " fill="#03027E" transform="translate(222.5,142.5625)"/>
<path d="M0 0 C24.42 0 48.84 0 74 0 C74 14.19 74 28.38 74 43 C80.93 43 87.86 43 95 43 C95 57.19 95 71.38 95 86 C98.96 86 102.92 86 107 86 C107 57.62 107 29.24 107 0 C131.09 0 155.18 0 180 0 C180 73.59 180 147.18 180 223 C155.91 223 131.82 223 107 223 C107 208.81 107 194.62 107 180 C100.07 180 93.14 180 86 180 C86 166.14 86 152.28 86 138 C82.04 138 78.08 138 74 138 C74 166.05 74 194.1 74 223 C49.58 223 25.16 223 0 223 C0 149.41 0 75.82 0 0 Z M10 10 C10 77.32 10 144.64 10 214 C28.15 214 46.3 214 65 214 C65 185.62 65 157.24 65 128 C74.9 128 84.8 128 95 128 C95 142.19 95 156.38 95 171 C101.93 171 108.86 171 116 171 C116 184.86 116 198.72 116 213 C134.15 213 152.3 213 171 213 C171 146.01 171 79.02 171 10 C152.85 10 134.7 10 116 10 C116 38.05 116 66.1 116 95 C106.1 95 96.2 95 86 95 C86 80.81 86 66.62 86 52 C79.07 52 72.14 52 65 52 C65 38.14 65 24.28 65 10 C46.85 10 28.7 10 10 10 Z " fill="#07057D" transform="translate(1090,152)"/>
<path d="M0 0 C52.47 0 104.94 0 159 0 C159 17.49 159 34.98 159 53 C130.95 53 102.9 53 74 53 C74 91.94 74 130.88 74 171 C77.96 171 81.92 171 86 171 C86 142.95 86 114.9 86 86 C110.09 86 134.18 86 159 86 C159 131.21 159 176.42 159 223 C106.53 223 54.06 223 0 223 C0 149.41 0 75.82 0 0 Z M10 10 C10 76.99 10 143.98 10 213 C56.2 213 102.4 213 150 213 C150 174.06 150 135.12 150 95 C131.85 95 113.7 95 95 95 C95 123.05 95 151.1 95 180 C85.1 180 75.2 180 65 180 C65 134.79 65 89.58 65 43 C93.05 43 121.1 43 150 43 C150 32.11 150 21.22 150 10 C103.8 10 57.6 10 10 10 Z " fill="#09077C" transform="translate(731,152)"/>
<path d="M0 0 C52.47 0 104.94 0 159 0 C159 17.49 159 34.98 159 53 C130.95 53 102.9 53 74 53 C74 63.89 74 74.78 74 86 C95.12 86 116.24 86 138 86 C138 103.16 138 120.32 138 138 C116.88 138 95.76 138 74 138 C74 148.89 74 159.78 74 171 C102.05 171 130.1 171 159 171 C159 188.16 159 205.32 159 223 C106.53 223 54.06 223 0 223 C0 149.41 0 75.82 0 0 Z M10 10 C10 76.99 10 143.98 10 213 C56.2 213 102.4 213 150 213 C150 202.11 150 191.22 150 180 C121.95 180 93.9 180 65 180 C65 162.84 65 145.68 65 128 C85.79 128 106.58 128 128 128 C128 117.11 128 106.22 128 95 C107.21 95 86.42 95 65 95 C65 77.84 65 60.68 65 43 C93.05 43 121.1 43 150 43 C150 32.11 150 21.22 150 10 C103.8 10 57.6 10 10 10 Z " fill="#0B037A" transform="translate(1765,152)"/>
<path d="M0 0 C52.47 0 104.94 0 159 0 C159 17.49 159 34.98 159 53 C130.95 53 102.9 53 74 53 C74 63.89 74 74.78 74 86 C95.12 86 116.24 86 138 86 C138 103.16 138 120.32 138 138 C116.88 138 95.76 138 74 138 C74 148.89 74 159.78 74 171 C102.05 171 130.1 171 159 171 C159 188.16 159 205.32 159 223 C106.53 223 54.06 223 0 223 C0 149.41 0 75.82 0 0 Z M10 10 C10 76.99 10 143.98 10 213 C56.2 213 102.4 213 150 213 C150 202.11 150 191.22 150 180 C121.95 180 93.9 180 65 180 C65 162.84 65 145.68 65 128 C85.79 128 106.58 128 128 128 C128 117.11 128 106.22 128 95 C107.21 95 86.42 95 65 95 C65 77.84 65 60.68 65 43 C93.05 43 121.1 43 150 43 C150 32.11 150 21.22 150 10 C103.8 10 57.6 10 10 10 Z " fill="#0B087C" transform="translate(911,152)"/>
<path d="M0 0 C52.47 0 104.94 0 159 0 C159 17.49 159 34.98 159 53 C130.95 53 102.9 53 74 53 C74 63.89 74 74.78 74 86 C95.12 86 116.24 86 138 86 C138 103.16 138 120.32 138 138 C116.88 138 95.76 138 74 138 C74 148.89 74 159.78 74 171 C102.05 171 130.1 171 159 171 C159 188.16 159 205.32 159 223 C106.53 223 54.06 223 0 223 C0 149.41 0 75.82 0 0 Z M10 10 C10 76.99 10 143.98 10 213 C56.2 213 102.4 213 150 213 C150 202.11 150 191.22 150 180 C121.95 180 93.9 180 65 180 C65 162.84 65 145.68 65 128 C85.79 128 106.58 128 128 128 C128 117.11 128 106.22 128 95 C107.21 95 86.42 95 65 95 C65 77.84 65 60.68 65 43 C93.05 43 121.1 43 150 43 C150 32.11 150 21.22 150 10 C103.8 10 57.6 10 10 10 Z " fill="#0B087C" transform="translate(551,152)"/>
<path d="M0 0 C45.54 0 91.08 0 138 0 C138 17.49 138 34.98 138 53 C116.88 53 95.76 53 74 53 C74 91.94 74 130.88 74 171 C95.12 171 116.24 171 138 171 C138 188.16 138 205.32 138 223 C92.46 223 46.92 223 0 223 C0 149.41 0 75.82 0 0 Z M10 10 C10 76.99 10 143.98 10 213 C48.94 213 87.88 213 128 213 C128 202.11 128 191.22 128 180 C107.21 180 86.42 180 65 180 C65 134.79 65 89.58 65 43 C85.79 43 106.58 43 128 43 C128 32.11 128 21.22 128 10 C89.06 10 50.12 10 10 10 Z " fill="#0B037A" transform="translate(1607,152)"/>
<path d="M0 0 C45.54 0 91.08 0 138 0 C138 7.26 138 14.52 138 22 C144.93 22 151.86 22 159 22 C159 81.07 159 140.14 159 201 C152.07 201 145.14 201 138 201 C138 208.26 138 215.52 138 223 C92.46 223 46.92 223 0 223 C0 149.41 0 75.82 0 0 Z M10 10 C10 76.99 10 143.98 10 213 C49.27 213 88.54 213 129 213 C129 206.07 129 199.14 129 192 C135.93 192 142.86 192 150 192 C150 138.87 150 85.74 150 31 C142.74 31 135.48 31 128 31 C128 24.07 128 17.14 128 10 C89.06 10 50.12 10 10 10 Z " fill="#0A037A" transform="translate(1333,152)"/>
<path d="M0 0 C45.54 0 91.08 0 138 0 C138 7.26 138 14.52 138 22 C144.93 22 151.86 22 159 22 C159 81.07 159 140.14 159 201 C152.07 201 145.14 201 138 201 C138 208.26 138 215.52 138 223 C92.46 223 46.92 223 0 223 C0 149.41 0 75.82 0 0 Z M10 10 C10 76.99 10 143.98 10 213 C49.27 213 88.54 213 129 213 C129 206.07 129 199.14 129 192 C135.93 192 142.86 192 150 192 C150 138.87 150 85.74 150 31 C142.74 31 135.48 31 128 31 C128 24.07 128 17.14 128 10 C89.06 10 50.12 10 10 10 Z " fill="#0A077C" transform="translate(372,152)"/>
<path d="M0 0 C3.52874007 1.41847212 6.13559254 3.52398677 9 6 C9.84304687 6.71929687 10.68609375 7.43859375 11.5546875 8.1796875 C51.52672259 43.72268823 51.52672259 43.72268823 53.375 59.125 C52.572929 67.41306702 48.21994923 73.07068924 42.62109375 78.99609375 C42.09682297 79.55692154 41.57255219 80.11774933 41.03239441 80.6955719 C35.60607599 86.4723479 30.07494944 92.14556088 24.48071289 97.75952148 C22.79566686 99.45443168 21.12161122 101.15976079 19.44726562 102.86523438 C3.84822329 118.61650995 3.84822329 118.61650995 -5.8125 119.25 C-18.66106594 118.97017642 -29.70605214 104.64029461 -38.22290039 96.09277344 C-40.05427645 94.25823774 -41.8986003 92.43745989 -43.74414062 90.6171875 C-63.86256291 70.61202368 -63.86256291 70.61202368 -65.4375 58.6875 C-64.3080688 49.16800844 -57.29989919 42.69494237 -51 36 C-49.62275848 34.43947539 -48.24777982 32.87695096 -46.875 31.3125 C-16.69988462 -2.06937852 -16.69988462 -2.06937852 0 0 Z M-18.25 21.5625 C-18.8996875 22.17947754 -19.549375 22.79645508 -20.21875 23.43212891 C-22.15526474 25.27858428 -24.08006404 27.13632404 -26 29 C-26.54333984 29.52674316 -27.08667969 30.05348633 -27.64648438 30.59619141 C-33.36910352 36.17043278 -38.89218005 41.85598746 -44 48 C-44.65355469 48.7528125 -45.30710938 49.505625 -45.98046875 50.28125 C-48.6239481 53.44709354 -50.71272736 56.01506525 -51.875 60 C-49.82385034 67.03251311 -43.87938741 72.29501284 -38.73046875 77.2734375 C-36.99074265 79.00923645 -35.40358168 80.81518596 -33.8125 82.6875 C-20.86613633 97.79624897 -20.86613633 97.79624897 -4.5 108.5 C5.23538334 107.10923095 14.07384934 95.26713881 20.85058594 88.46508789 C22.62052122 86.69198679 24.40341189 84.93267433 26.1875 83.17382812 C36.33566755 73.51733374 36.33566755 73.51733374 44 62 C43.9786744 56.76130169 41.66208124 53.74780962 38.29296875 50 C37.80644333 49.443125 37.31991791 48.88625 36.81864929 48.3125 C31.45771986 42.25065971 25.80541541 36.4681798 20.07397461 30.75830078 C18.29451172 28.98204413 16.52895116 27.19268489 14.76367188 25.40234375 C9.22000871 19.82857355 4.03731522 14.67608243 -3 11 C-8.4819196 11 -14.61067936 18.05602221 -18.25 21.5625 Z " fill="#05047F" transform="translate(203,155)"/>
<path d="M0 0 C1.08701706 -0.00287018 2.17403412 -0.00574036 3.29399109 -0.00869751 C5.58068364 -0.01072751 7.86739398 -0.00527267 10.15405273 0.00732422 C13.61677768 0.02334524 17.07832721 0.00746239 20.54101562 -0.01171875 C48.95919725 -0.04296694 48.95919725 -0.04296694 57.32421875 7.3984375 C58.65234375 9.2578125 58.65234375 9.2578125 59.57421875 11.1484375 C59.88875 11.76203125 60.20328125 12.375625 60.52734375 13.0078125 C62.83775703 19.93905235 62.48429437 27.51068093 62.4921875 34.73046875 C62.4971801 36.33906013 62.4971801 36.33906013 62.50227356 37.98014832 C62.50731614 40.2400978 62.50968271 42.50005466 62.50952148 44.76000977 C62.51170525 48.18974265 62.52988236 51.61915213 62.54882812 55.04882812 C62.55176327 57.25520725 62.55374726 59.46158788 62.5546875 61.66796875 C62.56187302 62.67978714 62.56905853 63.69160553 62.57646179 64.73408508 C62.54826167 73.66521724 62.47616905 83.39204966 56.32421875 90.3984375 C48.48960982 96.66612465 40.80021575 96.69903501 31.1796875 96.6640625 C30.01472244 96.66597595 28.84975739 96.6678894 27.64949036 96.66986084 C25.19104801 96.67121839 22.73259839 96.66755209 20.27416992 96.65917969 C16.53482724 96.64850348 12.79596816 96.65907498 9.05664062 96.671875 C6.6601552 96.67055276 4.26367007 96.66798904 1.8671875 96.6640625 C0.75957565 96.66811096 -0.34803619 96.67215942 -1.48921204 96.67633057 C-19.85805977 96.56685217 -19.85805977 96.56685217 -26.67578125 90.3984375 C-32.18471988 82.18975411 -32.98159804 73.18290515 -32.94140625 63.57421875 C-32.94427643 62.03933052 -32.94427643 62.03933052 -32.94720459 60.47343445 C-32.94856004 58.31602735 -32.94490854 56.15861193 -32.93652344 54.0012207 C-32.92587043 50.73825232 -32.93641224 47.47584144 -32.94921875 44.21289062 C-32.97083457 13.87863945 -32.97083457 13.87863945 -24.55078125 5.2109375 C-16.97707752 0.43621124 -8.74062938 -0.05187726 0 0 Z M-16.38598633 16.22583008 C-18.61135682 19.97437674 -18.80526535 23.39101663 -18.83691406 27.69848633 C-18.84652161 28.75671097 -18.85612915 29.81493561 -18.86602783 30.90522766 C-18.87027771 32.04380722 -18.87452759 33.18238678 -18.87890625 34.35546875 C-18.88460632 35.53179367 -18.8903064 36.70811859 -18.8961792 37.92008972 C-18.90562371 40.40903831 -18.912161 42.89799937 -18.91601562 45.38696289 C-18.92571739 49.18593262 -18.95674536 52.98436043 -18.98828125 56.78320312 C-18.99481196 59.20312179 -19.00006216 61.62304432 -19.00390625 64.04296875 C-19.01625305 65.17547562 -19.02859985 66.30798248 -19.0413208 67.47480774 C-19.02422576 73.55659619 -18.69075482 78.05922878 -15.67578125 83.3984375 C-10.3538729 87.57993692 -1.45556122 86.55811331 5.02734375 86.56640625 C5.94578064 86.56973465 6.86421753 86.57306305 7.81048584 86.57649231 C9.7468618 86.58153485 11.68324638 86.58390147 13.61962891 86.58374023 C16.55125588 86.58592042 19.48250225 86.60408752 22.4140625 86.62304688 C36.05830684 87.00912468 36.05830684 87.00912468 49.32421875 84.3984375 C54.57357034 78.84030052 53.48411588 69.81501766 53.4921875 62.62890625 C53.4955159 61.59333084 53.4988443 60.55775543 53.50227356 59.49079895 C53.50732442 57.30466148 53.50968246 55.11851634 53.50952148 52.93237305 C53.51170441 49.60777925 53.52987018 46.2835194 53.54882812 42.95898438 C53.55176323 40.82812613 53.55374724 38.69726631 53.5546875 36.56640625 C53.56546577 35.08940498 53.56546577 35.08940498 53.57646179 33.58256531 C53.55735701 27.73959663 53.32056446 21.95081435 51.32421875 16.3984375 C45.78467445 11.18474874 35.94558496 12.2399789 28.7421875 12.23046875 C27.8473616 12.22714035 26.95253571 12.22381195 26.03059387 12.22038269 C24.14727284 12.21534715 22.26394299 12.21297331 20.38061523 12.21313477 C17.53028347 12.21095172 14.68034147 12.1927692 11.83007812 12.17382812 C-3.33944714 11.05061507 -3.33944714 11.05061507 -16.38598633 16.22583008 Z " fill="#05047F" transform="translate(118.67578125,270.6015625)"/>
<path d="M0 0 C1.13519577 -0.0066568 2.27039154 -0.0133136 3.43998718 -0.02017212 C5.83098746 -0.03025246 8.22201561 -0.03499058 10.61303711 -0.03466797 C14.24055063 -0.039037 17.86684212 -0.07539695 21.49414062 -0.11328125 C23.82942297 -0.11915144 26.16471103 -0.12311948 28.5 -0.125 C29.56914139 -0.13937103 30.63828278 -0.15374207 31.73982239 -0.16854858 C40.42242363 -0.11673595 48.94784388 1.31449117 56.01171875 6.6484375 C62.32380191 15.40390768 62.11119292 24.67817311 62.15234375 35.0078125 C62.15804382 36.12601379 62.1637439 37.24421509 62.1696167 38.39630127 C62.17903579 40.75637881 62.18558834 43.11646933 62.18945312 45.4765625 C62.19914893 49.0601328 62.2301987 52.64312677 62.26171875 56.2265625 C62.26825089 58.52864246 62.27350053 60.83072648 62.27734375 63.1328125 C62.28969055 64.1915155 62.30203735 65.25021851 62.3147583 66.34100342 C62.29010733 74.69999937 61.20163078 82.46460432 56.94921875 89.7734375 C49.0679266 96.50537455 39.4913544 96.93544721 29.5390625 96.8671875 C28.29097305 96.8710144 27.04288361 96.87484131 25.75697327 96.87878418 C22.46775553 96.88217861 19.17931295 96.8662541 15.89019775 96.84375 C13.88643203 96.83593638 11.88336606 96.8437358 9.87963867 96.85742188 C5.99495537 96.88225787 2.1112901 96.87910803 -1.7734375 96.8671875 C-2.95599625 96.87528442 -4.13855499 96.88338135 -5.35694885 96.89172363 C-13.98703843 96.79499549 -21.39532428 95.60251607 -27.98828125 89.7109375 C-32.94938352 81.59277014 -33.50109615 73.29678912 -33.44921875 63.96875 C-33.45208893 62.81277313 -33.45495911 61.65679626 -33.45791626 60.46578979 C-33.45994715 58.03366605 -33.45448601 55.6015256 -33.44189453 53.16943359 C-33.4258574 49.47846318 -33.44176253 45.7885926 -33.4609375 42.09765625 C-33.45895432 39.72135178 -33.45510912 37.34504799 -33.44921875 34.96875 C-33.45529144 33.88087189 -33.46136414 32.79299377 -33.46762085 31.67214966 C-33.39185062 23.2755337 -32.64155046 14.56752721 -28.17578125 7.2734375 C-20.1696423 -0.02627743 -10.34724993 0.02141836 0 0 Z M-17.05078125 15.3359375 C-21.8874937 25.0093624 -20.25366318 38.50145784 -20.23828125 49.0859375 C-20.23800934 49.78882904 -20.23773743 50.49172058 -20.23745728 51.21591187 C-21.34292835 67.88454438 -21.34292835 67.88454438 -16.79016113 82.92950439 C-11.28076945 87.38430517 -1.76924467 86.63342619 4.98046875 86.6015625 C6.35531433 86.60443268 6.35531433 86.60443268 7.75793457 86.60736084 C9.6805855 86.60871153 11.60324591 86.60509384 13.52587891 86.59667969 C16.44194334 86.58596423 19.35739186 86.59661331 22.2734375 86.609375 C24.15494925 86.60805321 26.03646063 86.60549041 27.91796875 86.6015625 C28.77555786 86.60561096 29.63314697 86.60965942 30.51672363 86.61383057 C40.70228881 86.75091318 40.70228881 86.75091318 49.68914795 82.8865509 C55.40145703 75.8571181 53.2498742 61.23952368 53.20996094 52.64819336 C53.19925538 49.90781456 53.20989556 47.1680931 53.22265625 44.42773438 C54.1591274 29.33227131 54.1591274 29.33227131 49.68986511 15.77206421 C44.26358321 11.29509029 34.79621176 12.04812313 28.1015625 12.10546875 C27.20482315 12.10592697 26.3080838 12.10638519 25.38417053 12.1068573 C23.50439109 12.10985441 21.62461356 12.11766333 19.74487305 12.13012695 C16.89037132 12.1484141 14.03619497 12.15063588 11.18164062 12.15039062 C9.34244515 12.15530641 7.50325185 12.161135 5.6640625 12.16796875 C4.40274757 12.16963799 4.40274757 12.16963799 3.11595154 12.17134094 C-7.37452266 11.97303024 -7.37452266 11.97303024 -17.05078125 15.3359375 Z " fill="#05047F" transform="translate(246.05078125,270.6640625)"/>
<path d="M0 0 C0.93266693 -0.00145523 1.86533386 -0.00291046 2.82626343 -0.00440979 C4.7878534 -0.00275715 6.7494572 0.00873255 8.7109375 0.02954102 C11.70889368 0.05857396 14.70508766 0.05012084 17.703125 0.03710938 C19.6145919 0.04334527 21.52605324 0.05173504 23.4375 0.0625 C24.77671005 0.05809654 24.77671005 0.05809654 26.14297485 0.05360413 C33.28783968 0.16176077 36.75651358 1.98072376 41.84692383 7.00537109 C45.955387 11.89698548 46.06122629 16.14646181 45.91015625 22.34765625 C45.90973831 23.36532074 45.90932037 24.38298523 45.90888977 25.43148804 C45.90054685 27.5713177 45.87520608 29.71114181 45.83374023 31.85058594 C45.77347669 35.11896822 45.77217571 38.38348413 45.77929688 41.65234375 C45.76389162 43.73830981 45.74512611 45.82425433 45.72265625 47.91015625 C45.72134201 48.88215973 45.72002777 49.85416321 45.71867371 50.85562134 C45.57624215 56.70004464 44.91034266 60.00923184 41.0859375 64.49609375 C37.6859375 67.49609375 37.6859375 67.49609375 35.0859375 67.49609375 C35.0859375 68.15609375 35.0859375 68.81609375 35.0859375 69.49609375 C19.5759375 69.49609375 4.0659375 69.49609375 -11.9140625 69.49609375 C-11.9140625 68.83609375 -11.9140625 68.17609375 -11.9140625 67.49609375 C-12.4709375 67.26921875 -13.0278125 67.04234375 -13.6015625 66.80859375 C-17.11365827 64.8152421 -20.09466125 62.13489626 -21.9140625 58.49609375 C-22.02874599 57.02234384 -22.08344948 55.54369264 -22.10693359 54.06567383 C-22.12299652 53.14744339 -22.13905945 52.22921295 -22.15560913 51.28315735 C-22.20011659 47.07183568 -22.24114478 42.86067203 -22.26416016 38.64916992 C-22.28069578 36.43096406 -22.30795391 34.21281095 -22.34619141 31.99487305 C-22.40110083 28.79317638 -22.42285855 25.59272985 -22.4375 22.390625 C-22.46016937 21.40496048 -22.48283875 20.41929596 -22.50619507 19.40376282 C-22.4896058 13.96726035 -22.02386184 10.16224331 -18.43505859 5.93536377 C-12.6523632 0.46338383 -7.6556811 -0.09676845 0 0 Z M-4.9140625 18.49609375 C-4.9140625 29.38609375 -4.9140625 40.27609375 -4.9140625 51.49609375 C5.9759375 51.49609375 16.8659375 51.49609375 28.0859375 51.49609375 C28.0859375 40.60609375 28.0859375 29.71609375 28.0859375 18.49609375 C17.1959375 18.49609375 6.3059375 18.49609375 -4.9140625 18.49609375 Z " fill="#05047E" transform="translate(1539.9140625,305.50390625)"/>
<path d="M0 0 C0.89956924 -0.00857025 1.79913849 -0.0171405 2.72596741 -0.02597046 C4.61765189 -0.03739314 6.50942417 -0.03850489 8.40112305 -0.02978516 C11.2748165 -0.02346026 14.14439205 -0.07045842 17.01757812 -0.12109375 C33.56354016 -0.23747125 33.56354016 -0.23747125 39.82641602 4.82275391 C44.6337672 10.44406039 44.83908743 14.90221806 44.88671875 22.08984375 C44.89907562 23.10700974 44.9114325 24.12417572 44.92416382 25.17216492 C44.9437047 27.32134259 44.95495768 29.47060945 44.95849609 31.61987305 C44.972567 34.89329842 45.03990649 38.16289013 45.109375 41.43554688 C45.1217764 43.52862894 45.13099448 45.62173277 45.13671875 47.71484375 C45.16343658 48.68593582 45.19015442 49.65702789 45.21768188 50.657547 C45.15344298 57.1431675 43.66788972 60.41336078 39.11361694 65.04508972 C33.26341776 70.20130629 28.15026565 70.76000529 20.58203125 70.8046875 C19.82980286 70.81038757 19.07757446 70.81608765 18.30255127 70.82196045 C16.71229448 70.83138974 15.12201834 70.83793619 13.53173828 70.84179688 C11.11976253 70.85147381 8.70864997 70.8825038 6.296875 70.9140625 C4.74609877 70.92059639 3.19531649 70.92584534 1.64453125 70.9296875 C0.93278748 70.9420343 0.2210437 70.9543811 -0.51226807 70.96710205 C-6.60580452 70.94049116 -12.20042307 69.7254389 -16.9296875 65.62890625 C-17.47753906 64.93925781 -18.02539062 64.24960937 -18.58984375 63.5390625 C-19.15574219 62.84683594 -19.72164062 62.15460938 -20.3046875 61.44140625 C-22.42455032 58.54733266 -22.78774176 56.80072938 -22.84521484 53.26293945 C-22.86127777 52.36472977 -22.8773407 51.46652008 -22.89389038 50.54109192 C-22.93840772 46.42136391 -22.97942687 42.30179732 -23.00244141 38.18188477 C-23.01897558 36.01217911 -23.04623183 33.84252735 -23.08447266 31.6730957 C-23.13939428 28.54089158 -23.16114159 25.40996536 -23.17578125 22.27734375 C-23.19845062 21.31355301 -23.22112 20.34976227 -23.24447632 19.35676575 C-23.22783181 14.01908255 -22.74979445 10.21207233 -19.24076843 6.04811096 C-13.51644255 0.83507512 -7.50429988 -0.01610852 0 0 Z M-5.65234375 18.6015625 C-5.74077205 21.04960017 -5.76770347 23.47001044 -5.75 25.91796875 C-5.74899292 26.56568237 -5.74798584 27.213396 -5.74694824 27.8807373 C-5.74170218 30.30853029 -5.727741 32.73629811 -5.71484375 35.1640625 C-5.69421875 40.5884375 -5.67359375 46.0128125 -5.65234375 51.6015625 C5.23765625 51.6015625 16.12765625 51.6015625 27.34765625 51.6015625 C27.37859375 43.465 27.37859375 43.465 27.41015625 35.1640625 C27.41926025 33.45033447 27.42836426 31.73660645 27.43774414 29.97094727 C27.44066341 28.61995523 27.44321194 27.26896231 27.4453125 25.91796875 C27.45042847 25.21055542 27.45554443 24.50314209 27.46081543 23.77429199 C27.46112657 22.04963633 27.40991386 20.32509412 27.34765625 18.6015625 C25.43915677 16.69306302 22.03286851 17.47096617 19.50390625 17.46875 C18.81961548 17.46779327 18.13532471 17.46683655 17.43029785 17.46585083 C15.98103748 17.4651692 14.53177407 17.46702227 13.08251953 17.47119141 C10.85702697 17.47653998 8.63173624 17.4712459 6.40625 17.46484375 C5.00130164 17.46550453 3.5963534 17.4667857 2.19140625 17.46875 C0.90427734 17.46987793 -0.38285156 17.47100586 -1.70898438 17.47216797 C-4.54060532 17.26470107 -4.54060532 17.26470107 -5.65234375 18.6015625 Z " fill="#080780" transform="translate(1540.65234375,233.3984375)"/>
<path d="M0 0 C0.88141663 -0.01283524 1.76283325 -0.02567047 2.67095947 -0.03889465 C3.62613464 -0.04628159 4.58130981 -0.05366852 5.56542969 -0.0612793 C6.54719177 -0.06935104 7.52895386 -0.07742279 8.54046631 -0.08573914 C10.62184887 -0.09958597 12.70325419 -0.11030543 14.78466797 -0.11816406 C17.96072767 -0.1353542 21.13574042 -0.17923261 24.31152344 -0.22338867 C26.3336512 -0.23351754 28.35578781 -0.24203304 30.37792969 -0.2487793 C31.32500793 -0.26628738 32.27208618 -0.28379547 33.24786377 -0.30183411 C38.93445226 -0.28322557 42.24885192 0.33496011 46.73730469 4.17700195 C50.15570883 8.0573526 51.8505709 10.38660178 51.91430664 15.53149414 C51.93355949 16.88365021 51.93355949 16.88365021 51.95320129 18.26312256 C51.96058823 19.24017151 51.96797516 20.21722046 51.97558594 21.22387695 C51.98365768 22.22783508 51.99172943 23.23179321 52.00004578 24.26617432 C52.0138931 26.39463572 52.02461235 28.52311939 52.0324707 30.65161133 C52.04966226 33.90008943 52.09354061 37.14754433 52.13769531 40.39575195 C52.14782403 42.4634528 52.15633957 44.5311623 52.16308594 46.59887695 C52.18059402 47.56782898 52.19810211 48.53678101 52.21614075 49.53509521 C52.19775365 55.27984494 51.6196719 58.64020281 47.73730469 63.17700195 C41.9583514 68.6517998 36.07305949 69.48714112 28.33886719 69.4777832 C27.1481813 69.48421089 27.1481813 69.48421089 25.93344116 69.49076843 C24.26097564 69.49648811 22.58848526 69.49702949 20.91601562 69.49267578 C18.37684017 69.48952002 15.83883608 69.51298897 13.29980469 69.53833008 C11.66699364 69.54060396 10.0341795 69.54130615 8.40136719 69.5402832 C7.65214996 69.54949295 6.90293274 69.5587027 6.13101196 69.56819153 C0.10387554 69.51610787 -5.59420186 68.45053812 -10.32128906 64.4230957 C-10.77632812 63.82625977 -11.23136719 63.22942383 -11.70019531 62.61450195 C-12.17328125 62.01508789 -12.64636719 61.41567383 -13.13378906 60.7980957 C-15.09258936 57.98528559 -15.39773821 56.20953916 -15.43969727 52.82250977 C-15.4525325 51.92107239 -15.46536774 51.01963501 -15.47859192 50.09088135 C-15.48597885 49.1138324 -15.49336578 48.13678345 -15.50097656 47.13012695 C-15.50904831 46.12616882 -15.51712006 45.12221069 -15.5254364 44.08782959 C-15.53928373 41.95936819 -15.55000297 39.83088452 -15.55786133 37.70239258 C-15.57505289 34.45391447 -15.61893123 31.20645958 -15.66308594 27.95825195 C-15.67321465 25.89055111 -15.6817302 23.8228416 -15.68847656 21.75512695 C-15.70598465 20.78617493 -15.72349274 19.8172229 -15.74153137 18.81890869 C-15.72316006 13.07908995 -15.15619744 9.70066884 -11.26269531 5.17700195 C-7.42550505 1.79662005 -5.09147469 0.0645163 0 0 Z M1.73730469 17.17700195 C1.73730469 28.39700195 1.73730469 39.61700195 1.73730469 51.17700195 C12.62730469 51.17700195 23.51730469 51.17700195 34.73730469 51.17700195 C34.73730469 39.95700195 34.73730469 28.73700195 34.73730469 17.17700195 C23.84730469 17.17700195 12.95730469 17.17700195 1.73730469 17.17700195 Z " fill="#080780" transform="translate(1533.2626953125,159.822998046875)"/>
<path d="M0 0 C9.9 0 19.8 0 30 0 C30 45.21 30 90.42 30 137 C20.1 137 10.2 137 0 137 C0 91.79 0 46.58 0 0 Z M9 10 C9 48.94 9 87.88 9 128 C12.96 128 16.92 128 21 128 C21 89.06 21 50.12 21 10 C17.04 10 13.08 10 9 10 Z " fill="#07027B" transform="translate(1398,195)"/>
<path d="M0 0 C9.9 0 19.8 0 30 0 C30 45.21 30 90.42 30 137 C20.1 137 10.2 137 0 137 C0 91.79 0 46.58 0 0 Z M9 10 C9 48.94 9 87.88 9 128 C12.96 128 16.92 128 21 128 C21 89.06 21 50.12 21 10 C17.04 10 13.08 10 9 10 Z " fill="#07057D" transform="translate(437,195)"/>
<path d="M0 0 C0.93266693 -0.00145523 1.86533386 -0.00291046 2.82626343 -0.00440979 C4.7878534 -0.00275715 6.7494572 0.00873255 8.7109375 0.02954102 C11.70889368 0.05857396 14.70508766 0.05012084 17.703125 0.03710938 C19.6145919 0.04334527 21.52605324 0.05173504 23.4375 0.0625 C24.77671005 0.05809654 24.77671005 0.05809654 26.14297485 0.05360413 C33.28783968 0.16176077 36.75651358 1.98072376 41.84692383 7.00537109 C45.955387 11.89698548 46.06122629 16.14646181 45.91015625 22.34765625 C45.90973831 23.36532074 45.90932037 24.38298523 45.90888977 25.43148804 C45.90054685 27.5713177 45.87520608 29.71114181 45.83374023 31.85058594 C45.77347669 35.11896822 45.77217571 38.38348413 45.77929688 41.65234375 C45.76389162 43.73830981 45.74512611 45.82425433 45.72265625 47.91015625 C45.72134201 48.88215973 45.72002777 49.85416321 45.71867371 50.85562134 C45.57624215 56.70004464 44.91034266 60.00923184 41.0859375 64.49609375 C37.6859375 67.49609375 37.6859375 67.49609375 35.0859375 67.49609375 C35.0859375 68.15609375 35.0859375 68.81609375 35.0859375 69.49609375 C19.5759375 69.49609375 4.0659375 69.49609375 -11.9140625 69.49609375 C-11.9140625 68.83609375 -11.9140625 68.17609375 -11.9140625 67.49609375 C-12.4709375 67.26921875 -13.0278125 67.04234375 -13.6015625 66.80859375 C-17.11365827 64.8152421 -20.09466125 62.13489626 -21.9140625 58.49609375 C-22.02874599 57.02234384 -22.08344948 55.54369264 -22.10693359 54.06567383 C-22.12299652 53.14744339 -22.13905945 52.22921295 -22.15560913 51.28315735 C-22.20011659 47.07183568 -22.24114478 42.86067203 -22.26416016 38.64916992 C-22.28069578 36.43096406 -22.30795391 34.21281095 -22.34619141 31.99487305 C-22.40110083 28.79317638 -22.42285855 25.59272985 -22.4375 22.390625 C-22.46016937 21.40496048 -22.48283875 20.41929596 -22.50619507 19.40376282 C-22.4896058 13.96726035 -22.02386184 10.16224331 -18.43505859 5.93536377 C-12.6523632 0.46338383 -7.6556811 -0.09676845 0 0 Z M-14.9140625 13.49609375 C-17.47443457 18.61683789 -16.26997141 26.65482678 -16.3190918 32.35229492 C-16.34063842 34.23106302 -16.37470184 36.10973163 -16.42163086 37.98803711 C-16.48883966 40.70341605 -16.516126 43.41671762 -16.53515625 46.1328125 C-16.56298691 46.96536057 -16.59081757 47.79790863 -16.61949158 48.65568542 C-16.59984054 54.27827093 -15.28334832 57.12531773 -11.40003967 61.19636536 C-7.84221313 64.30826254 -3.84109896 63.67620959 0.63671875 63.69921875 C1.48767624 63.70491882 2.33863373 63.7106189 3.21537781 63.7164917 C5.01849116 63.72594673 6.82162183 63.73247767 8.62475586 63.73632812 C11.37709948 63.74601862 14.12869158 63.7770305 16.88085938 63.80859375 C18.63280807 63.81512538 20.3847621 63.82037522 22.13671875 63.82421875 C22.95771561 63.83656555 23.77871246 63.84891235 24.62458801 63.8616333 C29.25080647 63.84369511 32.4017267 63.59832012 36.0859375 60.49609375 C39.72617593 56.16159846 39.55337721 51.87030684 39.5546875 46.46875 C39.56230103 45.60221298 39.56991455 44.73567596 39.57775879 43.84288025 C39.58853774 42.01483026 39.59142187 40.18671879 39.58691406 38.35864258 C39.58594173 35.57072702 39.62758571 32.78556539 39.671875 29.99804688 C39.67708256 28.21745363 39.67977018 26.43685086 39.6796875 24.65625 C39.69608276 23.82795181 39.71247803 22.99965363 39.72937012 22.14625549 C39.68016329 17.99922238 39.35780073 15.29518316 36.73632812 11.98608398 C30.92590237 6.52730246 21.66479059 8.19486067 14.09936523 8.14599609 C12.22065846 8.12944075 10.34201456 8.10215614 8.46362305 8.06396484 C5.74755357 8.00906582 3.03295657 7.98730377 0.31640625 7.97265625 C-0.93545219 7.93865219 -0.93545219 7.93865219 -2.21260071 7.90396118 C-8.16737536 7.92542502 -10.77712581 9.18158694 -14.9140625 13.49609375 Z " fill="#080880" transform="translate(1539.9140625,305.50390625)"/>
<path d="M0 0 C0.82593155 -0.0038269 1.6518631 -0.00765381 2.50282288 -0.01159668 C4.24693014 -0.01431453 5.99107826 -0.00696213 7.73510742 0.00976562 C10.39790289 0.03115159 13.05799217 0.00997562 15.72070312 -0.015625 C17.41797468 -0.01298117 19.11524456 -0.00785503 20.8125 0 C21.60534897 -0.00809692 22.39819794 -0.01619385 23.21507263 -0.02453613 C26.88400651 0.03735051 29.14592485 0.36796402 32.47460938 2.03149414 C35.28497503 5.54754178 35.17352907 8.74396158 35.1015625 13.05859375 C35.10397446 13.8845253 35.10638641 14.71045685 35.10887146 15.56141663 C35.10789343 17.30556038 35.09450996 19.04973532 35.06958008 20.79370117 C35.03531202 23.45664556 35.04891039 26.11626268 35.06835938 28.77929688 C35.06145933 30.47657657 35.05178551 32.17384772 35.0390625 33.87109375 C35.04402237 34.66394272 35.04898224 35.45679169 35.05409241 36.27366638 C34.97668347 39.92749111 34.62978534 42.21394678 32.98608398 45.53320312 C29.3158656 48.45083958 26.26016746 48.23403693 21.69140625 48.16015625 C20.84090698 48.16256821 19.99040771 48.16498016 19.11413574 48.16746521 C17.31871877 48.16648716 15.5232715 48.15310331 13.72802734 48.12817383 C10.98170412 48.09386304 8.23859882 48.10751517 5.4921875 48.12695312 C3.74608007 48.12005448 1.99998094 48.11038193 0.25390625 48.09765625 C-0.56597778 48.10261612 -1.38586182 48.10757599 -2.23059082 48.11268616 C-5.76742087 48.03971758 -7.96024721 47.86636751 -11.04296875 46.04467773 C-13.24369386 42.31828547 -13.10063574 39.0071178 -13.05859375 34.75 C-13.06242065 33.89950073 -13.06624756 33.04900146 -13.07019043 32.17272949 C-13.07290833 30.37734796 -13.06555557 28.58192676 -13.04882812 26.78662109 C-13.02741542 24.04044207 -13.04863246 21.29687903 -13.07421875 18.55078125 C-13.07157545 16.80468173 -13.06645042 15.05858384 -13.05859375 13.3125 C-13.06669067 12.49261597 -13.0747876 11.67273193 -13.08312988 10.82800293 C-13.02481022 7.27758357 -12.86906532 5.10425228 -11.02709961 2.015625 C-7.43786338 -0.11569215 -4.05667128 -0.04132302 0 0 Z M-5.52734375 6.53125 C-5.52734375 17.75125 -5.52734375 28.97125 -5.52734375 40.53125 C5.36265625 40.53125 16.25265625 40.53125 27.47265625 40.53125 C27.47265625 29.31125 27.47265625 18.09125 27.47265625 6.53125 C16.58265625 6.53125 5.69265625 6.53125 -5.52734375 6.53125 Z " fill="#06057F" transform="translate(1540.52734375,170.46875)"/>
<path d="M0 0 C0.78012451 -0.00004028 1.56024902 -0.00008057 2.36401367 -0.00012207 C4.00805753 0.00522268 5.65210163 0.022761 7.29589844 0.05175781 C9.80483517 0.0936221 12.3110852 0.09282287 14.8203125 0.0859375 C16.42189355 0.096431 18.02346084 0.10936998 19.625 0.125 C20.37096436 0.12520142 21.11692871 0.12540283 21.88549805 0.12561035 C26.34526784 0.22637737 29.26690602 0.83494021 32.8125 3.59375 C34.40207359 6.77289717 34.01783722 10.21359382 34.05078125 13.70703125 C34.058853 14.51359665 34.06692474 15.32016205 34.07524109 16.15116882 C34.08908143 17.86011607 34.09980382 19.56909096 34.10766602 21.27807617 C34.12486506 23.8857903 34.16874794 26.49223187 34.21289062 29.09960938 C34.22301897 30.76040735 34.23153463 32.4212161 34.23828125 34.08203125 C34.25578934 34.85928055 34.27329742 35.63652985 34.29133606 36.43733215 C34.27736213 39.94296085 33.89362983 42.42957367 32.3347168 45.58422852 C28.66196953 48.51041018 25.60873436 48.31431979 21.03125 48.2578125 C20.18075073 48.26259613 19.33025146 48.26737976 18.45397949 48.27230835 C16.65859118 48.27570574 14.86314087 48.26651436 13.06787109 48.24560547 C10.32118683 48.21883467 7.57858856 48.24535554 4.83203125 48.27734375 C3.08592849 48.27403962 1.33982827 48.26763331 -0.40625 48.2578125 C-1.63607605 48.27299423 -1.63607605 48.27299423 -2.89074707 48.28848267 C-6.77427731 48.20874343 -8.60311325 48.06250821 -11.70092773 45.57763672 C-13.60761819 41.75047778 -13.78095065 38.37424811 -13.75390625 34.1875 C-13.76010483 33.38517944 -13.76630341 32.58285889 -13.77268982 31.75622559 C-13.77977243 30.06519785 -13.77664116 28.37410016 -13.76391602 26.68310547 C-13.7500402 24.10123051 -13.78414948 21.5229759 -13.82226562 18.94140625 C-13.82321684 17.29426995 -13.82135789 15.64712913 -13.81640625 14 C-13.82966446 13.23216187 -13.84292267 12.46432373 -13.85658264 11.67321777 C-13.79095212 7.88062281 -13.30307849 5.76409085 -11.15991211 2.60546875 C-7.40304207 0.06283145 -4.38625738 -0.09640386 0 0 Z M-6.1875 7.59375 C-6.2759283 10.04178767 -6.30285972 12.46219794 -6.28515625 14.91015625 C-6.28414917 15.55786987 -6.28314209 16.2055835 -6.28210449 16.8729248 C-6.27685843 19.30071779 -6.26289725 21.72848561 -6.25 24.15625 C-6.229375 29.580625 -6.20875 35.005 -6.1875 40.59375 C4.7025 40.59375 15.5925 40.59375 26.8125 40.59375 C26.8434375 32.4571875 26.8434375 32.4571875 26.875 24.15625 C26.884104 22.44252197 26.89320801 20.72879395 26.90258789 18.96313477 C26.90550716 17.61214273 26.90805569 16.26114981 26.91015625 14.91015625 C26.91527222 14.20274292 26.92038818 13.49532959 26.92565918 12.76647949 C26.92597032 11.04182383 26.87475761 9.31728162 26.8125 7.59375 C24.90400052 5.68525052 21.49771226 6.46315367 18.96875 6.4609375 C18.28445923 6.45998077 17.60016846 6.45902405 16.8951416 6.45803833 C15.44588123 6.4573567 13.99661782 6.45920977 12.54736328 6.46337891 C10.32187072 6.46872748 8.09657999 6.4634334 5.87109375 6.45703125 C4.46614539 6.45769203 3.06119715 6.4589732 1.65625 6.4609375 C0.36912109 6.46206543 -0.91800781 6.46319336 -2.24414062 6.46435547 C-5.07576157 6.25688857 -5.07576157 6.25688857 -6.1875 7.59375 Z " fill="#04037E" transform="translate(1541.1875,244.40625)"/>
<path d="M0 0 C0.89534958 -0.00807175 1.79069916 -0.01614349 2.71318054 -0.02445984 C4.61044374 -0.03830305 6.50773188 -0.04902414 8.4050293 -0.05688477 C11.30240269 -0.07408921 14.19863254 -0.11797152 17.09570312 -0.16210938 C18.93879369 -0.17223707 20.78189396 -0.18075293 22.625 -0.1875 C23.92211662 -0.21376213 23.92211662 -0.21376213 25.24543762 -0.24055481 C29.30558032 -0.22596272 31.45351214 -0.10834891 34.97338867 2.07739258 C39.25016392 6.61131732 39.33188189 10.11221001 39.34765625 16.0703125 C39.35431305 16.93967941 39.36096985 17.80904633 39.36782837 18.70475769 C39.37795367 20.54476812 39.38264543 22.38481526 39.38232422 24.22485352 C39.38668656 27.03008195 39.42297616 29.83372298 39.4609375 32.63867188 C39.46680799 34.42838005 39.47077583 36.21809568 39.47265625 38.0078125 C39.48702728 38.8423848 39.50139832 39.67695709 39.51620483 40.53681946 C39.47440485 45.90811754 38.6068015 48.99468492 35.01171875 53.23828125 C31.98773337 55.2542715 31.38011373 55.4921988 27.98681641 55.52880859 C27.18233063 55.5415683 26.37784485 55.554328 25.54898071 55.56747437 C24.68332489 55.56970001 23.81766907 55.57192566 22.92578125 55.57421875 C22.03184662 55.58087555 21.13791199 55.58753235 20.21688843 55.59439087 C18.3256028 55.60451594 16.43428145 55.60920793 14.54296875 55.60888672 C11.65434609 55.6132546 8.76725799 55.6495602 5.87890625 55.6875 C4.0403698 55.69336931 2.2018261 55.69733794 0.36328125 55.69921875 C-0.49832611 55.71358978 -1.35993347 55.72796082 -2.24765015 55.74276733 C-6.2532448 55.71236802 -8.45001336 55.56181036 -11.94775391 53.45947266 C-16.38064802 48.63409929 -16.31869623 44.64615528 -16.359375 38.30859375 C-16.36840347 37.44064178 -16.37743195 36.57268982 -16.38673401 35.67843628 C-16.40122336 33.84441571 -16.41011998 32.01034361 -16.41381836 30.17626953 C-16.42571167 27.37964209 -16.47490505 24.5852243 -16.52539062 21.7890625 C-16.53485592 20.00391698 -16.54209045 18.21875795 -16.546875 16.43359375 C-16.56640732 15.60215851 -16.58593964 14.77072327 -16.60606384 13.91409302 C-16.57366222 9.71594895 -16.26759436 7.05073469 -13.57836914 3.72607422 C-9.28095596 -0.40161363 -5.70582706 0.04840116 0 0 Z M-10.48803711 5.72265625 C-12.7099557 9.44839249 -12.56166107 12.75351994 -12.51953125 17.01953125 C-12.52335815 17.87003052 -12.52718506 18.72052979 -12.53112793 19.59680176 C-12.53384583 21.39218329 -12.52649307 23.18760449 -12.50976562 24.98291016 C-12.48835292 27.72908918 -12.50956996 30.47265222 -12.53515625 33.21875 C-12.53251295 34.96484952 -12.52738792 36.71094741 -12.51953125 38.45703125 C-12.52762817 39.27691528 -12.5357251 40.09679932 -12.54406738 40.94152832 C-12.48593027 44.48083404 -12.32623686 46.66603569 -10.50390625 49.75170898 C-6.77927153 51.95272808 -3.46419475 51.83044111 0.79296875 51.8046875 C1.64346802 51.81088608 2.49396729 51.81708466 3.37023926 51.82347107 C5.16559709 51.83056429 6.96102077 51.82740384 8.75634766 51.81469727 C11.50285822 51.800826 14.24596444 51.83491172 16.9921875 51.87304688 C18.73828208 51.87399806 20.48438093 51.87213928 22.23046875 51.8671875 C23.05035278 51.88044571 23.87023682 51.89370392 24.71496582 51.90736389 C28.59040477 51.84408675 30.42388184 51.70558161 33.52514648 49.24023438 C35.50595579 45.24022924 35.60571299 41.98814253 35.578125 37.578125 C35.58432358 36.75123672 35.59052216 35.92434845 35.59690857 35.07240295 C35.60399164 33.33010024 35.60085912 31.58772963 35.58813477 29.84545898 C35.57424186 27.18021466 35.60838909 24.51846506 35.64648438 21.85351562 C35.64743539 20.15755123 35.64557768 18.46158243 35.640625 16.765625 C35.65388321 15.9707518 35.66714142 15.1758786 35.68080139 14.35691833 C35.6190843 10.69150818 35.32793743 8.63390235 33.01367188 5.73852539 C29.00853069 3.73693198 25.77280822 3.66187954 21.3515625 3.70703125 C20.11123009 3.70129089 20.11123009 3.70129089 18.84584045 3.69543457 C17.10351336 3.69272055 15.36114517 3.70004603 13.61889648 3.71679688 C10.95399205 3.73824284 8.29177488 3.71696573 5.62695312 3.69140625 C3.93098365 3.69404909 2.23501583 3.69917315 0.5390625 3.70703125 C-0.6532473 3.69488586 -0.6532473 3.69488586 -1.86964417 3.68249512 C-5.21650079 3.73918811 -7.58688872 3.99993116 -10.48803711 5.72265625 Z " fill="#E6E6F2" transform="translate(1539.98828125,166.76171875)"/>
<path d="M0 0 C0.82876144 -0.00570007 1.65752289 -0.01140015 2.51139832 -0.01727295 C4.26743288 -0.02672748 6.02348522 -0.03325873 7.77954102 -0.03710938 C10.45946471 -0.04679906 13.13861628 -0.0778109 15.81835938 -0.109375 C17.52473503 -0.11590673 19.23111617 -0.12115654 20.9375 -0.125 C21.73662308 -0.1373468 22.53574615 -0.1496936 23.35908508 -0.16241455 C29.38969504 -0.13840988 32.48057107 1.15232253 36.94726562 5.34008789 C39.32119207 9.29000779 39.2445696 12.48359988 39.19921875 17.01171875 C39.20304565 17.85605972 39.20687256 18.7004007 39.21081543 19.57032776 C39.2135304 21.3513407 39.20619821 23.13239379 39.18945312 24.91333008 C39.16806286 27.628679 39.18925356 30.34137432 39.21484375 33.05664062 C39.21219988 34.79167247 39.20707366 36.52670267 39.19921875 38.26171875 C39.20731567 39.06814316 39.2154126 39.87456757 39.22375488 40.70542908 C39.13667527 45.98337837 38.17490178 49.02572551 34.66796875 53.203125 C31.6541514 55.21233657 31.03976458 55.45839688 27.65893555 55.50952148 C26.85767746 55.52550888 26.05641937 55.54149628 25.23088074 55.55796814 C24.36836197 55.56333084 23.5058432 55.56869354 22.6171875 55.57421875 C21.72562454 55.58324722 20.83406158 55.5922757 19.91548157 55.60157776 C18.02840535 55.61608619 16.14127876 55.62496847 14.25415039 55.62866211 C11.37624531 55.64053925 8.50049812 55.68970088 5.62304688 55.74023438 C3.78777086 55.74970112 1.9524817 55.75693495 0.1171875 55.76171875 C-0.73925858 55.78125107 -1.59570465 55.80078339 -2.47810364 55.82090759 C-6.69480166 55.78929604 -9.49080822 55.52464125 -12.86010742 52.85571289 C-18.21719728 47.10709251 -16.67074841 38.15918095 -16.73706055 30.69873047 C-16.75862527 28.87529544 -16.79271044 27.05196351 -16.83959961 25.22900391 C-16.906814 22.5897028 -16.93409214 19.95253776 -16.953125 17.3125 C-16.98095566 16.50496277 -17.00878632 15.69742554 -17.03746033 14.86541748 C-17.01749299 9.31964454 -15.63393582 6.52874463 -11.81800842 2.51177979 C-8.31430799 -0.57382235 -4.42225394 0.02334096 0 0 Z M-10.31103516 6.21044922 C-12.89016948 10.02961189 -13.03791298 13.15140408 -12.9609375 17.609375 C-12.96334946 18.41169556 -12.96576141 19.21401611 -12.96824646 20.04064941 C-12.96726987 21.73173989 -12.95392083 23.42286307 -12.92895508 25.11376953 C-12.89463334 27.69544573 -12.90830593 30.2736984 -12.92773438 32.85546875 C-12.92083554 34.50261867 -12.9111628 36.14975979 -12.8984375 37.796875 C-12.9058773 38.9486322 -12.9058773 38.9486322 -12.91346741 40.12365723 C-12.83771472 43.58809619 -12.39558354 46.07556118 -10.84545898 49.18701172 C-7.18136738 52.12611502 -4.12823442 51.92369441 0.44921875 51.8671875 C1.29971802 51.87197113 2.15021729 51.87675476 3.02648926 51.88168335 C4.82187757 51.88508074 6.61732788 51.87588936 8.41259766 51.85498047 C11.15928192 51.82820967 13.90188019 51.85473054 16.6484375 51.88671875 C18.39454026 51.88341462 20.14064048 51.87700831 21.88671875 51.8671875 C22.70660278 51.87730865 23.52648682 51.88742981 24.37121582 51.89785767 C28.25385636 51.81813669 30.0843052 51.67038438 33.18359375 49.18920898 C35.09355195 45.3469888 35.24332531 41.96146964 35.19921875 37.76171875 C35.20304565 36.95702652 35.20687256 36.15233429 35.21081543 35.32325745 C35.213529 33.62800846 35.20620667 31.9327172 35.18945312 30.23754883 C35.16800533 27.64504712 35.18928575 25.05530741 35.21484375 22.46289062 C35.21220092 20.8124939 35.20707687 19.16209889 35.19921875 17.51171875 C35.20731567 16.73871933 35.2154126 15.96571991 35.22375488 15.16929626 C35.1616787 11.60321315 34.97896199 9.60352481 32.75976562 6.74633789 C27.28471236 2.70714418 19.98110094 3.89997103 13.41088867 3.85302734 C11.71250701 3.83647676 10.01419474 3.80919815 8.31616211 3.77099609 C5.86405412 3.71612842 3.41357728 3.69433987 0.9609375 3.6796875 C-0.17212578 3.64568344 -0.17212578 3.64568344 -1.32807922 3.61099243 C-5.09914709 3.62604702 -7.16354148 4.08959256 -10.31103516 6.21044922 Z " fill="#E8E8F3" transform="translate(1540.33203125,240.796875)"/>
<path d="M0 0 C0.87315353 -0.00570007 1.74630707 -0.01140015 2.6459198 -0.01727295 C4.49611192 -0.02672845 6.34632093 -0.03325911 8.1965332 -0.03710938 C11.02129719 -0.04680065 13.84532919 -0.07781255 16.66992188 -0.109375 C18.4674436 -0.11590652 20.26497052 -0.12115641 22.0625 -0.125 C22.90537064 -0.1373468 23.74824127 -0.1496936 24.61665344 -0.16241455 C30.42881121 -0.14044613 33.63573474 0.84121539 38.01806641 4.83032227 C39.90318245 8.51969859 39.65848834 12.08277064 39.62890625 16.16796875 C39.63177643 17.03829239 39.63464661 17.90861603 39.63760376 18.80531311 C39.63964262 20.64357149 39.63412519 22.48185165 39.62158203 24.32006836 C39.60554495 27.12728671 39.62142645 29.93306112 39.640625 32.74023438 C39.63864216 34.528649 39.63479763 36.31706273 39.62890625 38.10546875 C39.63801529 39.36036354 39.63801529 39.36036354 39.64730835 40.64060974 C39.59151285 45.28729347 39.34882419 48.50683889 36.23046875 52.203125 C31.94294672 55.77279782 27.78916726 55.68492654 22.45703125 55.70703125 C21.61506195 55.71701645 20.77309265 55.72700165 19.90560913 55.73728943 C18.12885433 55.75243871 16.35201464 55.75951621 14.57519531 55.7590332 C11.87029997 55.76558905 9.16908919 55.82008125 6.46484375 55.87695312 C4.73308539 55.88575766 3.0013097 55.89171023 1.26953125 55.89453125 C0.06763657 55.92686607 0.06763657 55.92686607 -1.15853882 55.95985413 C-6.66994521 55.89328318 -9.46336864 54.47284508 -13.45840454 50.68663025 C-17.77463736 45.80292679 -16.07959135 36.51837396 -16.11962891 30.29199219 C-16.13616875 28.40644979 -16.16343284 26.52096959 -16.20166016 24.63574219 C-16.25657176 21.91308157 -16.27832551 19.19189063 -16.29296875 16.46875 C-16.31563812 15.63104065 -16.3383075 14.7933313 -16.36166382 13.93023682 C-16.34652243 9.71237152 -16.06519634 7.0284824 -13.36181641 3.68652344 C-9.10059925 -0.39570494 -5.65030852 0.02828589 0 0 Z M-9.73754883 5.22143555 C-12.32596956 9.01963119 -12.49245007 12.12734557 -12.43359375 16.57421875 C-12.43837738 17.37416763 -12.44316101 18.17411652 -12.4480896 18.99830627 C-12.45148226 20.68517022 -12.44232397 22.37210048 -12.42138672 24.05883789 C-12.39464257 26.62992292 -12.42113272 29.1966294 -12.453125 31.76757812 C-12.4498201 33.4114679 -12.44341218 35.05535497 -12.43359375 36.69921875 C-12.4437149 37.4618956 -12.45383606 38.22457245 -12.46426392 39.01036072 C-12.38199716 42.7903474 -11.94960141 45.54977877 -9.75561523 48.69140625 C-5.96432166 51.88042009 -3.07200758 52.02717072 1.671875 51.89453125 C2.47656723 51.89315659 3.28125946 51.89178192 4.1103363 51.8903656 C5.80570813 51.88133 7.50105736 51.85776486 9.19604492 51.82055664 C11.78849598 51.76571961 14.37773205 51.75902822 16.97070312 51.75976562 C18.62112148 51.74501965 20.27151812 51.72753444 21.921875 51.70703125 C23.08137413 51.70202354 23.08137413 51.70202354 24.26429749 51.69691467 C27.47405754 51.61210027 29.84554973 51.41369632 32.68725586 49.85913086 C37.15189674 45.06817071 35.57738238 35.66584544 35.63549805 29.44335938 C35.65710323 27.70324895 35.69123644 25.96324793 35.73803711 24.22363281 C35.80504073 21.70849351 35.83249048 19.19559325 35.8515625 16.6796875 C35.87939316 15.90557526 35.90722382 15.13146301 35.93589783 14.33389282 C35.92017661 10.19347731 35.40388826 8.4086891 32.70947266 5.21484375 C29.04508447 2.66051232 25.30096163 2.47955384 20.9453125 2.5390625 C20.16660294 2.53427887 19.38789337 2.52949524 18.58558655 2.52456665 C16.94758064 2.52117965 15.30950602 2.53029802 13.67163086 2.55126953 C11.17082694 2.57809434 8.67449506 2.55146825 6.17382812 2.51953125 C4.57681306 2.52283486 2.97980077 2.5292401 1.3828125 2.5390625 C0.6399852 2.52894135 -0.1028421 2.51882019 -0.86817932 2.50839233 C-4.58847049 2.59203642 -6.64260927 3.11681555 -9.73754883 5.22143555 Z " fill="#EAEAF4" transform="translate(1539.76953125,313.796875)"/>
<path d="M0 0 C2.31 0 4.62 0 7 0 C7 10.89 7 21.78 7 33 C3.968125 33.0825 0.93625 33.165 -2.1875 33.25 C-3.13391357 33.28641602 -4.08032715 33.32283203 -5.05541992 33.36035156 C-9.2201401 33.41516796 -11.42387541 33.36230515 -15.03125 31.09375 C-18.64975578 27.24549782 -19.45524032 24.43337032 -19.32421875 19.03125 C-18.79002404 15.68448796 -17.13123774 13.55748529 -15 11 C-11.71737969 8.81158646 -10.68209102 8.75145335 -6.875 8.8125 C-5.98554688 8.81894531 -5.09609375 8.82539063 -4.1796875 8.83203125 C-2 9 -2 9 -1 10 C-0.67 6.7 -0.34 3.4 0 0 Z M-9.8125 16.125 C-11.55198782 18.87155972 -11.39769128 20.81846974 -11 24 C-9.93654948 25.98029682 -9.93654948 25.98029682 -8 27 C-5.5 27.58333333 -5.5 27.58333333 -3 27 C-0.97103788 25.46186579 -0.97103788 25.46186579 0 23 C-0.22037628 19.32706204 -0.36966546 17.63033454 -3 15 C-5.80984248 14.63976378 -7.38241919 14.61667398 -9.8125 16.125 Z " fill="#FFFFFF" transform="translate(267,303)"/>
<path d="M0 0 C2.31 0 4.62 0 7 0 C7 10.89 7 21.78 7 33 C3.968125 33.0825 0.93625 33.165 -2.1875 33.25 C-3.13391357 33.28641602 -4.08032715 33.32283203 -5.05541992 33.36035156 C-9.2201401 33.41516796 -11.42387541 33.36230515 -15.03125 31.09375 C-18.64975578 27.24549782 -19.45524032 24.43337032 -19.32421875 19.03125 C-18.79002404 15.68448796 -17.13123774 13.55748529 -15 11 C-11.71737969 8.81158646 -10.68209102 8.75145335 -6.875 8.8125 C-5.98554688 8.81894531 -5.09609375 8.82539063 -4.1796875 8.83203125 C-2 9 -2 9 -1 10 C-0.67 6.7 -0.34 3.4 0 0 Z M-9.8125 16.125 C-11.55198782 18.87155972 -11.39769128 20.81846974 -11 24 C-9.93654948 25.98029682 -9.93654948 25.98029682 -8 27 C-5.5 27.58333333 -5.5 27.58333333 -3 27 C-0.97103788 25.46186579 -0.97103788 25.46186579 0 23 C-0.22037628 19.32706204 -0.36966546 17.63033454 -3 15 C-5.80984248 14.63976378 -7.38241919 14.61667398 -9.8125 16.125 Z " fill="#FFFFFF" transform="translate(136,303)"/>
<path d="M0 0 C2.31 0 4.62 0 7 0 C7 7.59 7 15.18 7 23 C-6.34287902 23.4941807 -6.34287902 23.4941807 -9.39453125 21.19921875 C-11.64969776 18.11002473 -11.93337003 15.79790814 -12 12 C-10.6875 9.0625 -10.6875 9.0625 -9 7 C-8.34 7 -7.68 7 -7 7 C-7 6.34 -7 5.68 -7 5 C-4.69 5 -2.38 5 0 5 C0 3.35 0 1.7 0 0 Z M-4 11 C-4.33 12.65 -4.66 14.3 -5 16 C-3.515 16.99 -3.515 16.99 -2 18 C-1.34 17.67 -0.68 17.34 0 17 C0 15.35 0 13.7 0 12 C-1.32 11.67 -2.64 11.34 -4 11 Z " fill="#FFFFFF" transform="translate(1554,257)"/>
<path d="M0 0 C1.98 0 3.96 0 6 0 C6 7.59 6 15.18 6 23 C-7.35588633 23.49466246 -7.35588633 23.49466246 -10.390625 21.1640625 C-12.51318284 18.30994346 -13 16.56320561 -13 13 C-11.51571399 10.37776138 -10.1352735 8.1352735 -8 6 C-5.66702567 5.95907063 -3.33294775 5.95758277 -1 6 C-1.020625 5.195625 -1.04125 4.39125 -1.0625 3.5625 C-1 1 -1 1 0 0 Z M-5 12 C-5.33 13.65 -5.66 15.3 -6 17 C-4.68 17.33 -3.36 17.66 -2 18 C-1.67 16.35 -1.34 14.7 -1 13 C-2.32 12.67 -3.64 12.34 -5 12 Z " fill="#FFFFFF" transform="translate(1555,329)"/>
<path d="M0 0 C3.5 0.8125 3.5 0.8125 5.375 2 C7.02261692 4.65449392 7.37533099 6.69577487 7.5 9.8125 C5.36956522 14.37771739 5.36956522 14.37771739 2.5 15.8125 C-1.04250417 16.07490772 -3.63259827 16.2233745 -6.875 14.6875 C-9.14943318 12.06315402 -9.43096951 10.26402438 -9.5 6.8125 C-7.36999687 2.12649312 -5.40760772 -0.28969327 0 0 Z " fill="#DF210D" transform="translate(1552.5,186.1875)"/>
<path d="M0 0 C0.33 0 0.66 0 1 0 C1.06058594 0.71285156 1.12117187 1.42570313 1.18359375 2.16015625 C1.74822208 8.66113196 1.74822208 8.66113196 2.625 15.125 C2.74875 16.07375 2.8725 17.0225 3 18 C2.67 18.33 2.34 18.66 2 19 C1.76518307 21.18292774 1.58636677 23.37203174 1.4375 25.5625 C1.35371094 26.76003906 1.26992187 27.95757812 1.18359375 29.19140625 C1.12300781 30.11824219 1.06242188 31.04507813 1 32 C0.67 32 0.34 32 0 32 C0 28.04 0 24.08 0 20 C-1.98 19.67 -3.96 19.34 -6 19 C-6.75 16.75 -6.75 16.75 -7 14 C-5.1875 11.6875 -5.1875 11.6875 -3 10 C-2.34 10 -1.68 10 -1 10 C-0.67 6.7 -0.34 3.4 0 0 Z " fill="#DE200D" transform="translate(199,199)"/>
<path d="M0 0 C1.18797432 0.01061211 1.18797432 0.01061211 2.39994812 0.0214386 C4.91735264 0.04931881 7.43249231 0.11203925 9.94921875 0.17578125 C11.66077505 0.20087264 13.3723664 0.22368434 15.08398438 0.24414062 C19.26909529 0.29912378 23.45252371 0.38534707 27.63671875 0.48828125 C27.63671875 0.81828125 27.63671875 1.14828125 27.63671875 1.48828125 C26.59741211 1.49239014 25.55810547 1.49649902 24.48730469 1.50073242 C20.6253117 1.52253099 16.76433654 1.57682652 12.90283203 1.64086914 C11.23268399 1.66404313 9.56238994 1.6784435 7.89208984 1.68383789 C5.48833296 1.69313261 3.08687034 1.73412785 0.68359375 1.78125 C-0.43381195 1.77535103 -0.43381195 1.77535103 -1.5737915 1.76933289 C-5.15078741 1.86964821 -7.04112754 2.22228746 -9.828125 4.5234375 C-11.76286002 8.25998681 -11.96582022 11.51676474 -11.97265625 15.6328125 C-11.9891925 16.40259933 -12.00572876 17.17238617 -12.02276611 17.96549988 C-12.07113411 20.41067572 -12.0925909 22.85523021 -12.11328125 25.30078125 C-12.1414505 26.96422378 -12.17137927 28.62763751 -12.203125 30.29101562 C-12.27688936 34.35671964 -12.3265318 38.42208101 -12.36328125 42.48828125 C-12.69328125 42.48828125 -13.02328125 42.48828125 -13.36328125 42.48828125 C-13.48713209 37.31055379 -13.57773696 32.13369337 -13.63793945 26.95483398 C-13.66304186 25.19426449 -13.69713153 23.43379878 -13.74047852 21.67358398 C-13.8013224 19.13889946 -13.82953238 16.6055955 -13.8515625 14.0703125 C-13.87736893 13.28678909 -13.90317535 12.50326569 -13.92976379 11.69599915 C-13.93180203 7.70004999 -13.63265819 5.89156054 -11.35546875 2.48242188 C-7.52747879 -0.06873853 -4.44256944 -0.15052439 0 0 Z " fill="#414199" transform="translate(1541.36328125,316.51171875)"/>
<path d="M0 0 C0 0.99 0 1.98 0 3 C-0.66 3.66 -1.32 4.32 -2 5 C-2.24556371 7.72000357 -2.37356486 10.34574257 -2.4140625 13.0703125 C-2.43342865 13.86654022 -2.4527948 14.66276794 -2.4727478 15.48312378 C-2.53260474 18.03030634 -2.57895279 20.57753395 -2.625 23.125 C-2.66317421 24.8502803 -2.70222561 26.57554143 -2.7421875 28.30078125 C-2.83831109 32.53369876 -2.92231908 36.76670549 -3 41 C-3.33 41 -3.66 41 -4 41 C-4.09895826 35.80393014 -4.17150993 30.60841002 -4.21972656 25.41162109 C-4.2398285 23.64427128 -4.26711472 21.87698787 -4.30175781 20.10986328 C-4.35034009 17.56786715 -4.37298226 15.02675104 -4.390625 12.484375 C-4.41127014 11.69569031 -4.43191528 10.90700562 -4.45318604 10.09442139 C-4.45470477 6.37219988 -4.3401694 4.42517073 -1.97558594 1.46972656 C-1.32364258 0.9847168 -0.67169922 0.49970703 0 0 Z " fill="#15157D" transform="translate(1532,246)"/>
<path d="M0 0 C0.66 0.33 1.32 0.66 2 1 C-0.475 4.465 -0.475 4.465 -3 8 C-3.33 6.68 -3.66 5.36 -4 4 C-2.0625 1.75 -2.0625 1.75 0 0 Z " fill="#1B1B87" transform="translate(1532,318)"/>
</svg>
